<mxfile host="app.diagrams.net" agent="Mozilla/5.0 (X11; Linux x86_64; rv:109.0) Gecko/20100101 Firefox/115.0" version="24.7.16">
  <diagram name="Page-1" id="pIJ1ZQ_ZNmlC9Ujet68F">
    <mxGraphModel dx="1434" dy="871" grid="1" gridSize="10" guides="1" tooltips="1" connect="1" arrows="1" fold="1" page="1" pageScale="1" pageWidth="827" pageHeight="1169" math="0" shadow="0">
      <root>
        <mxCell id="0" />
        <mxCell id="1" parent="0" />
        <mxCell id="fpEOohyaUf4AS9DzYO2--16" value="" style="verticalLabelPosition=top;verticalAlign=bottom;html=1;shape=mxgraph.basic.rect;fillColor2=none;strokeWidth=3;size=20;indent=100;fillColor=#d5e8d4;strokeColor=#82b366;align=right;horizontal=1;labelPosition=left;labelBackgroundColor=#ffffff;" vertex="1" parent="1">
          <mxGeometry x="240" y="330" width="399" height="310" as="geometry" />
        </mxCell>
        <mxCell id="fpEOohyaUf4AS9DzYO2--2" value="&lt;b&gt;Instruccions abans de la sentència IF&lt;/b&gt;" style="rounded=0;whiteSpace=wrap;html=1;fillColor=#ffe6cc;strokeColor=#d79b00;strokeWidth=3;" vertex="1" parent="1">
          <mxGeometry x="316" y="160" width="196" height="60" as="geometry" />
        </mxCell>
        <mxCell id="fpEOohyaUf4AS9DzYO2--3" value="&lt;b&gt;condition&lt;/b&gt;" style="strokeWidth=3;html=1;shape=mxgraph.flowchart.decision;whiteSpace=wrap;fillColor=#dae8fc;strokeColor=#6c8ebf;" vertex="1" parent="1">
          <mxGeometry x="344" y="370" width="140" height="70" as="geometry" />
        </mxCell>
        <mxCell id="fpEOohyaUf4AS9DzYO2--4" value="" style="endArrow=classic;html=1;rounded=0;entryX=0.5;entryY=0;entryDx=0;entryDy=0;entryPerimeter=0;fillColor=#dae8fc;strokeColor=#6c8ebf;strokeWidth=3;" edge="1" parent="1" source="fpEOohyaUf4AS9DzYO2--2" target="fpEOohyaUf4AS9DzYO2--3">
          <mxGeometry width="50" height="50" relative="1" as="geometry">
            <mxPoint x="390" y="570" as="sourcePoint" />
            <mxPoint x="540" y="380" as="targetPoint" />
          </mxGeometry>
        </mxCell>
        <mxCell id="fpEOohyaUf4AS9DzYO2--5" value="&lt;b&gt;Bloc de codi de la sentència IF&lt;br&gt;&lt;/b&gt;" style="rounded=0;whiteSpace=wrap;html=1;fillColor=#ffe6cc;strokeColor=#d79b00;strokeWidth=3;" vertex="1" parent="1">
          <mxGeometry x="316" y="525" width="196" height="60" as="geometry" />
        </mxCell>
        <mxCell id="fpEOohyaUf4AS9DzYO2--6" value="&lt;b&gt;true&lt;/b&gt;" style="endArrow=classic;html=1;rounded=0;exitX=0.5;exitY=1;exitDx=0;exitDy=0;exitPerimeter=0;fillColor=#dae8fc;strokeColor=#6c8ebf;curved=0;jumpSize=20;strokeWidth=3;labelBackgroundColor=#d5e8d4;" edge="1" parent="1" source="fpEOohyaUf4AS9DzYO2--3" target="fpEOohyaUf4AS9DzYO2--5">
          <mxGeometry x="-0.2941" y="26" width="50" height="50" relative="1" as="geometry">
            <mxPoint x="360" y="570" as="sourcePoint" />
            <mxPoint x="410" y="520" as="targetPoint" />
            <mxPoint as="offset" />
          </mxGeometry>
        </mxCell>
        <mxCell id="fpEOohyaUf4AS9DzYO2--7" value="&lt;b&gt;Instruccions després de la sentència IF&lt;/b&gt;" style="rounded=0;whiteSpace=wrap;html=1;fillColor=#ffe6cc;strokeColor=#d79b00;strokeWidth=3;" vertex="1" parent="1">
          <mxGeometry x="316" y="770" width="196" height="60" as="geometry" />
        </mxCell>
        <mxCell id="fpEOohyaUf4AS9DzYO2--8" value="" style="endArrow=classic;html=1;rounded=0;entryX=0.5;entryY=0;entryDx=0;entryDy=0;fillColor=#dae8fc;strokeColor=#6c8ebf;strokeWidth=3;exitX=0.5;exitY=1;exitDx=0;exitDy=0;" edge="1" parent="1" source="fpEOohyaUf4AS9DzYO2--5" target="fpEOohyaUf4AS9DzYO2--7">
          <mxGeometry width="50" height="50" relative="1" as="geometry">
            <mxPoint x="414" y="600" as="sourcePoint" />
            <mxPoint x="414" y="680" as="targetPoint" />
          </mxGeometry>
        </mxCell>
        <mxCell id="fpEOohyaUf4AS9DzYO2--13" value="&lt;b&gt;false&lt;/b&gt;" style="endArrow=classic;html=1;rounded=0;exitX=1;exitY=0.5;exitDx=0;exitDy=0;exitPerimeter=0;edgeStyle=orthogonalEdgeStyle;entryX=1;entryY=0.5;entryDx=0;entryDy=0;strokeWidth=3;fillColor=#dae8fc;strokeColor=#6c8ebf;labelBackgroundColor=#d5e8d4;" edge="1" parent="1" source="fpEOohyaUf4AS9DzYO2--3" target="fpEOohyaUf4AS9DzYO2--7">
          <mxGeometry x="-0.8261" y="15" width="50" height="50" relative="1" as="geometry">
            <mxPoint x="360" y="570" as="sourcePoint" />
            <mxPoint x="650" y="480" as="targetPoint" />
            <Array as="points">
              <mxPoint x="610" y="405" />
              <mxPoint x="610" y="800" />
            </Array>
            <mxPoint as="offset" />
          </mxGeometry>
        </mxCell>
        <mxCell id="fpEOohyaUf4AS9DzYO2--18" value="&lt;div&gt;&lt;b&gt;Condicional simple&lt;/b&gt;&lt;/div&gt;" style="text;html=1;align=center;verticalAlign=middle;resizable=0;points=[];autosize=1;strokeColor=none;fillColor=none;" vertex="1" parent="1">
          <mxGeometry x="510" y="300" width="130" height="30" as="geometry" />
        </mxCell>
        <mxCell id="fpEOohyaUf4AS9DzYO2--19" value="&lt;b&gt;1&lt;/b&gt;" style="ellipse;whiteSpace=wrap;html=1;aspect=fixed;fillColor=#f8cecc;strokeColor=#b85450;" vertex="1" parent="1">
          <mxGeometry x="490" y="200" width="30" height="30" as="geometry" />
        </mxCell>
        <mxCell id="fpEOohyaUf4AS9DzYO2--20" value="&lt;span&gt;2&lt;/span&gt;" style="ellipse;whiteSpace=wrap;html=1;aspect=fixed;fillColor=#f8cecc;strokeColor=#b85450;fontStyle=1" vertex="1" parent="1">
          <mxGeometry x="490" y="570" width="30" height="30" as="geometry" />
        </mxCell>
        <mxCell id="fpEOohyaUf4AS9DzYO2--21" value="&lt;b&gt;3&lt;/b&gt;" style="ellipse;whiteSpace=wrap;html=1;aspect=fixed;fillColor=#f8cecc;strokeColor=#b85450;" vertex="1" parent="1">
          <mxGeometry x="490" y="810" width="30" height="30" as="geometry" />
        </mxCell>
      </root>
    </mxGraphModel>
  </diagram>
</mxfile>
